<svg xmlns="http://www.w3.org/2000/svg" viewBox="0 0 180 68.76"><defs><style>.cls-1{fill:#58595b;}.cls-2{fill:#ef4136;}.cls-3{fill:#f15a29;}.cls-4{fill:#e6e7e8;}.cls-5{fill:#00aeef;opacity:0.2;}.cls-6{fill:#ec008c;}</style></defs><g id="Layer_2" data-name="Layer 2"><g id="Layer_1-2" data-name="Layer 1"><g id="Logo"><g id="Symbol"><g id="Bug"><g id="Legs"><path d="M19.52,21.06c-.39.44-.75.88-1.1,1.35L18,22.29A18.67,18.67,0,0,1,6.91,13.73.76.76,0,1,1,8.23,13,17.24,17.24,0,0,0,19.52,21.06Z"/><path d="M17.91,43.51A17.38,17.38,0,0,0,7.28,54.3a.76.76,0,0,1-.73.53.67.67,0,0,1-.24,0,.76.76,0,0,1-.48-1A19,19,0,0,1,17.08,42.15C17.34,42.62,17.61,43.07,17.91,43.51Z"/><path d="M14.91,31.54c-.05.51-.08,1-.08,1.53A30.92,30.92,0,0,0,1,34.18a.76.76,0,0,1-.47-1.45,31.89,31.89,0,0,1,8.36-1.48A32.54,32.54,0,0,1,14.91,31.54Z"/><path d="M30.38,11.44a8.81,8.81,0,0,0-2.89-6.91,1.08,1.08,0,0,0-1.2-.18A2.33,2.33,0,0,1,23,2.25c.16-3.4,5-2.66,4.57.29a1.06,1.06,0,0,0,.36,1,10.2,10.2,0,0,1,3.51,7.54A5.89,5.89,0,0,0,30.38,11.44Z"/></g><g id="Body"><path d="M33.15,44.82v6.86a18.74,18.74,0,0,1-2.5-.17,18.32,18.32,0,0,1-12.74-8c-.3-.44-.57-.89-.83-1.36a18.26,18.26,0,0,1-2.25-8.82v-.26c0-.51,0-1,.08-1.53s.13-1.08.23-1.61a.08.08,0,0,1,0,0,16.53,16.53,0,0,0,.42,1.75,15.46,15.46,0,0,0,.57,1.66,18.69,18.69,0,0,0,1.16,2.38l0,.06a18.78,18.78,0,0,0,2.22,3l0,0A18.52,18.52,0,0,0,22,41a0,0,0,0,1,0,0l0,0,0,0a19.36,19.36,0,0,0,2.14,1.42h0a18.48,18.48,0,0,0,6.37,2.16h0l.47.06.16,0h0A17,17,0,0,0,33.15,44.82Z"/><path class="cls-1" d="M33.18,22.62l0,.37V44.82a17,17,0,0,1-1.9-.1h0l-.16,0-.47-.06h0a18.48,18.48,0,0,1-6.37-2.16h0a19.36,19.36,0,0,1-2.14-1.42l0,0,0,0a0,0,0,0,0,0,0,18.52,18.52,0,0,1-2.39-2.21l0,0a18.78,18.78,0,0,1-2.22-3l0-.06a18.69,18.69,0,0,1-1.16-2.38,15.46,15.46,0,0,1-.57-1.66,16.53,16.53,0,0,1-.42-1.75,18.32,18.32,0,0,1,2.67-6.62L18,23l.38-.54c.35-.47.71-.91,1.1-1.35a18.5,18.5,0,0,1,2.33-2.18l.68-.41a19,19,0,0,1,3.53-1.59l.26-.08.22-.07.59-.16.16,0a2.74,2.74,0,0,1,.39-.09l.09,0,.13,0,.56-.12.17,0,.26,0,.18,0,.57-.08.22,0,.23,0,.5-.05.17,0,.26,0h2.13v6.76Z"/><path d="M29.3,14.52c0,2,1.72.51,3.85.51v.84H31l-.26,0-.17,0-.5.05-.23,0-.22,0-.57.08-.18,0-.26,0-.17,0-.56.12-.13,0-.09,0a2.74,2.74,0,0,0-.39.09l-.16,0-.59.16c0-.19.05-.37.08-.56a6.72,6.72,0,0,1,3.75-4.73h0a5.89,5.89,0,0,1,1.09-.39,6.61,6.61,0,0,1,1.68-.23v.84a5.93,5.93,0,0,0-1.73.24h0a3.61,3.61,0,0,0-1.08.52A2.49,2.49,0,0,0,29.3,14.52Z"/><path class="cls-1" d="M33.15,11.66V15C31,15,29.3,16.5,29.3,14.52a2.49,2.49,0,0,1,1-2.1,3.61,3.61,0,0,1,1.08-.52h0A5.93,5.93,0,0,1,33.15,11.66Z"/></g><g id="Wing"><path class="cls-2" d="M33.18,22.63l0,.36L33,24.21l-1.8,20.51v.08l-.59,6.71-.22,2.57a19.11,19.11,0,0,1-14.91-9.5c-.26-.45-.5-.91-.73-1.39A19.08,19.08,0,0,1,13,33.37c0-.17,0-.34.05-.5.06-.51.14-1,.23-1.51a19.83,19.83,0,0,1,1.5-4.56,18.9,18.9,0,0,1,2.6-4l.44-.51c.14-.16.28-.31.43-.46s.55-.56.84-.82a18.37,18.37,0,0,1,2.72-2.09h0l.68-.41a19,19,0,0,1,3.53-1.59l.05.11h0s0,0,0,0,0,0,0,0h0a.36.36,0,0,0,0,.09l0,.06h0l.05.1,0,.07,0,.07,0,0v0l0,0a.57.57,0,0,0,.08.13h0l.05.07,0,0,0,0a.27.27,0,0,0,.07.08l0,.06,0,0a.46.46,0,0,0,.07.07.46.46,0,0,0,.07.07l.07.06h0l.12.1a.55.55,0,0,0,.14.09l.07,0,.05,0h0l.05,0h0l.07,0a3,3,0,0,0,1,.06h.66a1.59,1.59,0,0,1,1,.2l0,0,0,0,0,0s0,0,0,0h0l0,0,0,0s0,0,0,0h0l0,0h0s0,0,0,.05h0a.06.06,0,0,1,0,0,.64.64,0,0,0,0,.07c0,.08,0,.16,0,.24v.12h0v0a.41.41,0,0,1,0,.11h0v.15a.06.06,0,0,1,0,0V20s0,0,0,.06a.28.28,0,0,0,0,.09h0a.17.17,0,0,0,0,.07.19.19,0,0,0,0,.08s0,.06,0,.09,0,0,0,.08,0,.07,0,.1h0s0,0,0,.06,0,0,0,.07v0l.06.17c.05.12.08.31.17.52,0,.05.05.1.07.16h0a1.8,1.8,0,0,0,.67.69,1.78,1.78,0,0,0,.6.25h0a3.24,3.24,0,0,0,1,.07Z"/><path class="cls-3" d="M33.18,22.62l0,.37L33,24.21,31.25,44.72v0l-.16,0-.43-.14a18.7,18.7,0,0,1-3.86-1.82,19.07,19.07,0,0,1-2.45-1.8,20,20,0,0,1-1.48-1.43A19,19,0,0,1,19.3,34.1c-.25-.58-.48-1.18-.68-1.79a19.09,19.09,0,0,1-.9-5.82c0-.56,0-1.12.07-1.69s.1-.94.17-1.4c0-.15.05-.3.08-.45l.12-.61c0-.18.09-.36.13-.54.27-.29.55-.56.84-.83a19.83,19.83,0,0,1,2.72-2.09l.68-.41a19,19,0,0,1,3.53-1.59l.26-.08.22-.07.59-.16.16,0a2.74,2.74,0,0,1,.39-.09l.09,0,.13,0,.56-.12.17,0,.26,0,.18,0,.57-.08.22,0,.23,0,.5-.05.17,0,.26,0h2.13v6.76Z"/><path class="cls-4" d="M33.15,22.63h0c-2.36.39-2.81-1.95-2.95-3.71h0c-.82-.82-2.43.21-3.27-.67h0a3,3,0,0,1-.47-.54h0a5,5,0,0,1-.43-.83l.48-.14h0a23.4,23.4,0,0,1,6.61-.87Z"/><circle cx="18.32" cy="37.37" r="1.91"/><circle cx="23.06" cy="30.18" r="3.37"/><path d="M23.6,20.93A3.37,3.37,0,0,1,18,23.41a1.85,1.85,0,0,1-.14-.14,3.25,3.25,0,0,1-.4-.5c.28-.34.57-.66.87-1a18.79,18.79,0,0,1,3.56-2.91h0l.68-.41A3.34,3.34,0,0,1,23.6,20.93Z"/><circle cx="26.51" cy="42.42" r="4.67"/><circle cx="30.87" cy="26.97" r="1.45"/></g></g><g id="Magnify"><path d="M47.61,16.82a20.37,20.37,0,0,0-14.46-6v3.06a17.41,17.41,0,0,1,0,34.81v3.06a20.4,20.4,0,0,0,12.14-4,20.83,20.83,0,0,0,4.33-4.33A20.46,20.46,0,0,0,47.61,16.82Z"/><path class="cls-5" d="M45.45,43.59a17.34,17.34,0,0,1-12.3,5.1V13.88a17.41,17.41,0,0,1,12.3,29.71Z"/><rect x="46.79" y="44.55" width="6.12" height="6.88" transform="translate(-19.33 49.3) rotate(-45)"/><path class="cls-6" d="M57.75,46.75H64a.72.72,0,0,1,.72.72V67.4a3.82,3.82,0,0,1-3.82,3.82h0A3.82,3.82,0,0,1,57,67.4V47.47a.72.72,0,0,1,.72-.72Z" transform="translate(-23.89 60.3) rotate(-45)"/></g></g><g id="Letters" fill="#F1F5F9"><path d="M71.76,38.78l-4.59,5.46a1.39,1.39,0,0,1-2.12.17,1.41,1.41,0,0,1-.4-1,1.26,1.26,0,0,1,.27-.85l5-6L65.3,31a1.26,1.26,0,0,1-.32-.84,1.44,1.44,0,0,1,.4-1,1.28,1.28,0,0,1,1-.44,1.37,1.37,0,0,1,1.13.52l4.23,5.1,4.35-5.14a1.25,1.25,0,0,1,1-.48,1.44,1.44,0,0,1,1,.37,1.21,1.21,0,0,1,.43,1,1.29,1.29,0,0,1-.18.79l-4.74,5.7,5,6a1.13,1.13,0,0,1,.29.79,1.46,1.46,0,0,1-.43,1.06,1.32,1.32,0,0,1-1,.43,1.43,1.43,0,0,1-1.14-.58Z"/><path d="M84.82,42.87,90.46,23.7a1.38,1.38,0,0,1,1.42-1,1.21,1.21,0,0,1,1.31.88L98.78,43a1.67,1.67,0,0,1,.07.42,1.38,1.38,0,0,1-.4,1,1.24,1.24,0,0,1-.92.41,1.32,1.32,0,0,1-1.4-1L95,40H88.61l-1.22,4.08a.9.9,0,0,1-.42.5,1.47,1.47,0,0,1-.81.24,1.39,1.39,0,0,1-1-.41,1.41,1.41,0,0,1-.4-1A1.93,1.93,0,0,1,84.82,42.87Zm7-13.72-2.4,8H94.2Z"/><path d="M113.83,50.83h-6.07a1.38,1.38,0,0,1-1-.4,1.41,1.41,0,0,1,0-2,1.34,1.34,0,0,1,1-.4h6.07a1.58,1.58,0,0,0,1-.42l.95-.81a1.17,1.17,0,0,0,.48-1V41.57a5.6,5.6,0,0,1-3.84,2h-2.15a4.47,4.47,0,0,1-3-1.16l-1-.93a3.53,3.53,0,0,1-.89-1.27,4,4,0,0,1-.38-1.63V33.93a4.77,4.77,0,0,1,.38-1.87,3.54,3.54,0,0,1,.89-1.31l1.15-1a4.29,4.29,0,0,1,2.9-1.06h2a4.51,4.51,0,0,1,3,1.16l1,.82,0-.55a1.42,1.42,0,0,1,1.4-1.4,1.43,1.43,0,0,1,1,.41,1.32,1.32,0,0,1,.42,1V45.84a3.94,3.94,0,0,1-1.43,3l-1.14,1a3.84,3.84,0,0,1-1.22.66A4.4,4.4,0,0,1,113.83,50.83Zm-1.6-19.33h-1.88a1.82,1.82,0,0,0-1.19.48l-.87.72a1.4,1.4,0,0,0-.5,1.13V38.5a1.46,1.46,0,0,0,.55,1.07l.92.82a1.43,1.43,0,0,0,.92.36h2.28a1.74,1.74,0,0,0,1.1-.5l2.22-1.88a1.4,1.4,0,0,0,.52-1.1V35.15a1.57,1.57,0,0,0-.58-1.25L113.43,32A1.69,1.69,0,0,0,112.23,31.5Z"/><path d="M136.62,44.79h-8.54a1.4,1.4,0,0,1-1.4-1.4,1.38,1.38,0,0,1,.41-1,1.35,1.35,0,0,1,1-.41H131V31.53h-2.83a1.36,1.36,0,0,1-1-.42,1.34,1.34,0,0,1-.41-1,1.41,1.41,0,0,1,.41-1,1.36,1.36,0,0,1,1-.42h4.26a1.36,1.36,0,0,1,1,.42,1.41,1.41,0,0,1,.41,1V42h2.8a1.39,1.39,0,0,1,1,.41,1.38,1.38,0,0,1,0,2A1.34,1.34,0,0,1,136.62,44.79Zm-5.7-23.36h1.46a1.38,1.38,0,0,1,1.41,1.4V24a1.43,1.43,0,0,1-.41,1,1.36,1.36,0,0,1-1,.42h-1.5a1.4,1.4,0,0,1-1.4-1.4l0-1.23a1.37,1.37,0,0,1,1.4-1.4Z"/><path d="M156.91,44.82h-8.47a1.36,1.36,0,0,1-1-.42,1.42,1.42,0,0,1-.4-1,1.37,1.37,0,0,1,.4-1,1.39,1.39,0,0,1,1-.41h2.8V25.46H148.4a1.4,1.4,0,1,1,0-2.8h4.27a1.42,1.42,0,0,1,1.4,1.4V42h2.84a1.42,1.42,0,0,1,1.4,1.4,1.43,1.43,0,0,1-.41,1A1.32,1.32,0,0,1,156.91,44.82Z"/><path d="M180,34v3.38a1.44,1.44,0,0,1-1.4,1.41h-9.91v.81a1.52,1.52,0,0,0,.62,1.22l.81.68a2.1,2.1,0,0,0,1.27.52h7.21a1.38,1.38,0,0,1,1,.41,1.37,1.37,0,0,1,0,2,1.37,1.37,0,0,1-1,.41h-7.39a4.23,4.23,0,0,1-1.54-.31,4.08,4.08,0,0,1-1.2-.64l-1.25-1.1a3.49,3.49,0,0,1-1-1.3,3.68,3.68,0,0,1-.39-1.53V33.52a3.91,3.91,0,0,1,.42-1.49,3.81,3.81,0,0,1,1.08-1.45l1.16-.92a4,4,0,0,1,2.56-.93H175a4.06,4.06,0,0,1,2.8,1.23l1.05,1A3.87,3.87,0,0,1,180,34Zm-11.28-.22V36h8.51V34a1.51,1.51,0,0,0-.48-1.2l-.82-.72a1.92,1.92,0,0,0-1.14-.52h-3.51a1.8,1.8,0,0,0-1.19.45l-.82.69A1.32,1.32,0,0,0,168.72,33.78Z"/></g></g></g></g></svg>