<svg xmlns="http://www.w3.org/2000/svg" viewBox="0 0 923.8 899.97"><defs><style>.cls-1,.cls-2,.cls-3{fill:#231f20;}.cls-2,.cls-3,.cls-4,.cls-5,.cls-6,.cls-7,.cls-8,.cls-9{stroke:#231f20;stroke-miterlimit:10;}.cls-2{stroke-linecap:round;}.cls-4{fill:#58595b;}.cls-5{fill:#ef4136;}.cls-6{fill:#f15a29;}.cls-7{fill:#fff;}.cls-8{fill:#00aeef;}.cls-9{fill:#ec008c;}</style></defs><g id="Layer_2" data-name="Layer 2"><g id="Layer_1-2" data-name="Layer 1"><path class="cls-1" d="M303.5,301.61A248.79,248.79,0,0,1,235,292C173.6,274.38,122.2,234.63,90.29,180a10,10,0,1,1,17.27-10.09c60.1,102.85,194.79,141.38,300.25,85.88a10,10,0,0,1,9.32,17.7A243.58,243.58,0,0,1,303.5,301.61Z"/><path class="cls-1" d="M85.69,717.33a10.11,10.11,0,0,1-3.14-.51,10,10,0,0,1-6.36-12.64c19.86-60,61.87-109.62,118.29-139.58s121-37,182-19.84A10,10,0,1,1,371,564C256.32,531.66,132.58,597.36,95.18,710.46A10,10,0,0,1,85.69,717.33Z"/><path class="cls-1" d="M308.69,467.89a10,10,0,0,1-4.33-1c-127.7-61.44-246.23-34.1-291.27-19.5a10,10,0,1,1-6.17-19c33.64-10.91,71.43-17.56,109.26-19.24C185.56,406,251.8,419.42,313,448.88a10,10,0,0,1-4.35,19Z"/><path class="cls-2" d="M410.1,161.46c-1.18,9-15.28,7-13.86-2,5.24-36.74-8.89-73.68-36.84-99.68a14.25,14.25,0,0,0-15.75-2.42C325.3,65.87,300.3,52.11,301.06,30c2.06-44.47,65.35-34.85,59.7,3.7a14.25,14.25,0,0,0,4.81,12.8C397.92,74.59,416.55,119.36,410.1,161.46Z"/><path class="cls-3" d="M433.35,296.33l.42,0-.42,4.8V676.21A239.58,239.58,0,0,1,234.12,569.38q-5.79-8.65-10.83-17.83a238.94,238.94,0,0,1-29.48-115.34c0-1.12,0-2.23,0-3.35q.12-10.1,1.09-20,1-10.67,3-21c0-.17.06-.33.1-.5a238.53,238.53,0,0,1,35-86.61q1.39-2.13,2.84-4.23,2.43-3.54,5-7,6.78-9.15,14.4-17.62a241.31,241.31,0,0,1,30.42-28.5,0,0,0,0,1,0,0q4.4-2.82,8.92-5.42a248.85,248.85,0,0,1,46.14-20.78c1.1-.36,2.2-.71,3.31-1,.95-.3,1.91-.58,2.88-.86h0c2.56-.75,5.16-1.47,7.8-2.14.68-.18,1.36-.36,2-.52,1.66-.42,3.35-.82,5-1.2l1.2-.27,1.71-.37q3.66-.8,7.4-1.48l2.2-.4,3.35-.58,2.3-.37c2.48-.39,5-.76,7.49-1.09l2.92-.37,2.93-.35c2.18-.25,4.37-.47,6.57-.68l2.28-.2,3.43-.28q1.26-.1,2.52-.18l1.87-.13,1.9-.11,2.21-.12,3-.14,2.45-.1,2.14-.07,2.09,0c3.19-.07,6.38-.11,9.58-.1Z"/><path class="cls-4" d="M433.35,296.33l.42,0-.42,4.8V586.48a242.86,242.86,0,0,1-24.85-1.32h-.09l-2.16-.25c-2-.22-4-.48-6-.76l-.53-.07A239,239,0,0,1,288.2,537.28l-.25-.19-.59-.46a240.9,240.9,0,0,1-31.24-28.82l-.51-.56a241.1,241.1,0,0,1-29-39.55l-.43-.74A239.14,239.14,0,0,1,211,435.82q-4.25-10.57-7.49-21.62-3.28-11.2-5.5-22.85a238.53,238.53,0,0,1,35-86.61q1.39-2.13,2.84-4.23,2.43-3.54,5-7,6.78-9.15,14.4-17.62a241.31,241.31,0,0,1,30.42-28.5,0,0,0,0,1,0,0q4.4-2.82,8.92-5.42a248.85,248.85,0,0,1,46.14-20.78c1.1-.36,2.2-.71,3.31-1,.95-.3,1.91-.58,2.88-.86h0c2.56-.75,5.16-1.47,7.8-2.14.68-.18,1.36-.36,2-.52,1.66-.42,3.35-.82,5-1.2l1.2-.27,1.71-.37q3.66-.8,7.4-1.48l2.2-.4,3.35-.58,2.3-.37c2.48-.39,5-.76,7.49-1.09l2.92-.37,2.93-.35c2.18-.25,4.37-.47,6.57-.68l2.28-.2,3.43-.28q1.26-.1,2.52-.18l1.87-.13,1.9-.11,2.21-.12,3-.14,2.45-.1,2.14-.07,2.09,0c3.19-.07,6.38-.11,9.58-.1Z"/><path class="cls-3" d="M433.35,296.33l.42,0-.42,4.8L432,317a87.46,87.46,0,0,1-85.61-85c0-.81,0-1.63,0-2.45a84.76,84.76,0,0,1,.61-10.26v0c.28-2.45.67-4.86,1.15-7.23a87.59,87.59,0,0,1,49.1-61.93,85.42,85.42,0,0,1,14.2-5.12,87.48,87.48,0,0,1,22-2.91Z"/><path class="cls-5" d="M433.77,296.3l-.42,4.8L432,317,408.5,585.16l0,.44,0,.55L400.73,674l-2.94,33.58A249.69,249.69,0,0,1,203,583.31q-5.13-8.87-9.52-18.15A248.84,248.84,0,0,1,170.53,436.7q.28-3.29.66-6.54,1.13-10,3-19.71a249,249,0,0,1,53.5-112.28q2.84-3.39,5.78-6.67c1.84-2,3.71-4.06,5.61-6q5.31-5.54,11-10.73a249.92,249.92,0,0,1,35.56-27.33,0,0,0,0,1,0,0q4.4-2.82,8.92-5.42a248.85,248.85,0,0,1,46.14-20.78c.19.49.39,1,.6,1.46l0,.1c.06.15.12.29.19.43a5.05,5.05,0,0,0,.24.53l0,.1c.18.42.37.82.57,1.23.12.25.24.51.37.76l0,.09c.21.43.43.85.65,1.27s.35.66.53,1,.32.58.49.86l.24.42c.06.1.12.19.17.29l.35.55c.34.58.71,1.15,1.09,1.71h0c.23.34.46.67.7,1s.31.44.47.65l.28.38c.28.36.56.72.85,1.06s.44.53.67.79.29.33.43.49c.28.31.56.62.85.91s.63.63.95.94.58.54.88.8h0c.54.47,1.1.91,1.66,1.32s1.18.81,1.78,1.16c.3.17.59.34.9.49l.71.35a4.93,4.93,0,0,0,.53.22l.55.22h0c.31.13.62.23.94.33,3.65,1.1,8.07,1.08,12.6.83l1.34-.07,2.11-.12c.83,0,1.66-.1,2.48-.13l.82,0,1.76-.06c5.07-.14,9.71.25,12.89,2.59a5.21,5.21,0,0,1,.5.41,6.09,6.09,0,0,1,.44.44,6,6,0,0,1,.39.49,2.7,2.7,0,0,1,.27.39s0,0,0,0a3.72,3.72,0,0,1,.22.38,2.22,2.22,0,0,1,.2.41c.07.13.12.26.18.4a.58.58,0,0,1,.05.14c.06.14.11.29.16.44l0,.13a5.44,5.44,0,0,1,.15.54,1,1,0,0,1,0,.17c.05.19.09.39.13.59s.11.6.16.91c.13,1,.21,2,.27,3.09,0,.41,0,.83.05,1.26a2.09,2.09,0,0,1,0,.25,1.7,1.7,0,0,1,0,.22c0,.07,0,.14,0,.21,0,.48,0,1,.06,1.48v.07c0,.28,0,.56,0,.85s0,.58,0,.87c0,.08,0,.16,0,.24s0,.41,0,.61c0,.37,0,.75.07,1.13s0,.53.07.8.07.78.12,1.18v.07c0,.34.08.68.13,1s.09.68.15,1,.11.72.18,1.08.13.72.21,1.08.18.87.29,1.31l0,.1c.06.27.13.54.2.81s.17.61.26.92c0,.08.05.15.07.23.22.74.46,1.48.74,2.23.61,1.65,1.05,4.08,2.2,6.83q.42,1,1,2.07l0,.07a24.16,24.16,0,0,0,8.77,9,26.71,26.71,0,0,0,7.9,3.27h0l.31.08a43,43,0,0,0,13.57.88Z"/><path class="cls-6" d="M433.77,296.3l-.42,4.8L432,317,408.5,585.16l0,.44c-.74-.23-1.47-.45-2.21-.7-1.84-.57-3.69-1.17-5.5-1.79h0a250.13,250.13,0,0,1-101.9-66,250.8,250.8,0,0,1-46.51-70.77,244.24,244.24,0,0,1-8.86-23.43h0a249.25,249.25,0,0,1-10.93-98.19q.83-9.22,2.26-18.21c.33-2,.67-4,1-6q.75-4,1.6-7.89c.53-2.41,1.09-4.79,1.68-7.16q5.31-5.54,11-10.73a249.92,249.92,0,0,1,35.56-27.33,0,0,0,0,1,0,0q4.4-2.82,8.92-5.42a248.85,248.85,0,0,1,46.14-20.78c.19.49.39,1,.6,1.46l0,.1c.06.15.12.29.19.43a5.05,5.05,0,0,0,.24.53l0,.1c.18.42.37.82.57,1.23.12.25.24.51.37.76l0,.09c.21.43.43.85.65,1.27s.35.66.53,1,.32.58.49.86l.24.42c.06.1.12.19.17.29l.35.55c.34.58.71,1.15,1.09,1.71h0c.23.34.46.67.7,1s.31.44.47.65l.28.38c.28.36.56.72.85,1.06s.44.53.67.79.29.33.43.49c.28.31.56.62.85.91s.63.63.95.94.58.54.88.8h0c.54.47,1.1.91,1.66,1.32s1.18.81,1.78,1.16c.3.17.59.34.9.49l.71.35a4.93,4.93,0,0,0,.53.22l.55.22h0c.31.13.62.23.94.33,3.65,1.1,8.07,1.08,12.6.83l1.34-.07,2.11-.12c.83,0,1.66-.1,2.48-.13l.82,0,1.76-.06c5.07-.14,9.71.25,12.89,2.59a5.21,5.21,0,0,1,.5.41,6.09,6.09,0,0,1,.44.44,6,6,0,0,1,.39.49,2.7,2.7,0,0,1,.27.39s0,0,0,0a3.72,3.72,0,0,1,.22.38,2.22,2.22,0,0,1,.2.41c.07.13.12.26.18.4a.58.58,0,0,1,.05.14c.06.14.11.29.16.44l0,.13a5.44,5.44,0,0,1,.15.54,1,1,0,0,1,0,.17c.05.19.09.39.13.59s.11.6.16.91c.13,1,.21,2,.27,3.09,0,.41,0,.83.05,1.26a2.09,2.09,0,0,1,0,.25,1.7,1.7,0,0,1,0,.22c0,.07,0,.14,0,.21,0,.48,0,1,.06,1.48v.07c0,.28,0,.56,0,.85s0,.58,0,.87c0,.08,0,.16,0,.24s0,.41,0,.61c0,.37,0,.75.07,1.13s0,.53.07.8.07.78.12,1.18v.07c0,.34.08.68.13,1s.09.68.15,1,.11.72.18,1.08.13.72.21,1.08.18.87.29,1.31l0,.1c.06.27.13.54.2.81s.17.61.26.92c0,.08.05.15.07.23.22.74.46,1.48.74,2.23.61,1.65,1.05,4.08,2.2,6.83q.42,1,1,2.07l0,.07a24.16,24.16,0,0,0,8.77,9,26.71,26.71,0,0,0,7.9,3.27h0l.31.08a43,43,0,0,0,13.57.88Z"/><path class="cls-7" d="M433.35,296.33l.42,0-.42.06a32.83,32.83,0,0,1-13.57-.91l-.31-.08h0a29.15,29.15,0,0,1-16.67-12.3l0-.07a21,21,0,0,1-1.11-2,21.74,21.74,0,0,1-1.68-4.65c-.35-1.49-.7-3-1.14-4.46,0-.08-.05-.15-.07-.23-.09-.31-.17-.62-.26-.92s-.14-.54-.2-.81l0-.1c-.11-.44-.2-.87-.29-1.31s-.15-.72-.21-1.08-.13-.72-.18-1.08-.1-.69-.15-1-.09-.68-.13-1v-.07c-.05-.4-.09-.79-.12-1.18s-.05-.53-.07-.8-.05-.76-.07-1.13c0-.2,0-.41,0-.61s0-.16,0-.24c0-.29,0-.59,0-.87s0-.57,0-.85v-.07c0-.51,0-1-.06-1.48,0-.07,0-.14,0-.21a1.7,1.7,0,0,0,0-.22,2.09,2.09,0,0,0,0-.25c0-.43,0-.85-.05-1.26-.06-1.1-.14-2.14-.27-3.09-.05-.31-.1-.62-.16-.91s-.08-.4-.13-.59a1,1,0,0,0,0-.17,5.44,5.44,0,0,0-.15-.54l0-.13c-.05-.15-.1-.3-.16-.44a.58.58,0,0,0-.05-.14c-.06-.14-.11-.27-.18-.4a2.22,2.22,0,0,0-.2-.41,3.72,3.72,0,0,0-.22-.38s0,0,0,0a3.39,3.39,0,0,0-.27-.39,6,6,0,0,0-.39-.49,6.09,6.09,0,0,0-.44-.44,5.21,5.21,0,0,0-.5-.41c-3.35-2.33-7.91-2.71-12.89-2.59l-1.76.06-.82,0c-.82,0-1.65.08-2.48.13l-2.11.12-1.34.07c-4.75.22-9.46.2-13.54-1.16h0a15.05,15.05,0,0,1-6.13-3.76h0c-.3-.26-.59-.53-.88-.8s-.64-.62-.95-.94-.57-.6-.85-.91c-.14-.16-.29-.32-.43-.49s-.45-.52-.67-.79-.57-.7-.85-1.06l-.28-.38c-.16-.21-.31-.43-.47-.65s-.47-.66-.7-1h0c-.38-.56-.75-1.13-1.09-1.71-.18-.28-.35-.56-.52-.84l-.24-.42c-.17-.28-.33-.57-.49-.86s-.36-.66-.53-1-.44-.84-.65-1.27l0-.09c-.13-.25-.25-.51-.37-.76-.2-.41-.39-.81-.57-1.23l0-.1a5.05,5.05,0,0,1-.24-.53c-.07-.14-.13-.28-.19-.43l0-.1c-.21-.49-.41-1-.6-1.46,1.1-.36,2.2-.71,3.31-1,.95-.3,1.91-.58,2.88-.86h0c2.56-.75,5.16-1.47,7.8-2.14.68-.18,1.36-.36,2-.52,1.66-.42,3.35-.82,5-1.2l1.2-.27,1.71-.37q3.66-.8,7.4-1.48l2.2-.4,3.35-.58,2.3-.37c2.48-.39,5-.76,7.49-1.09l2.92-.37,2.93-.35c2.18-.25,4.37-.47,6.57-.68l2.28-.2,3.43-.28q1.26-.1,2.52-.18l1.87-.13,1.9-.11,2.21-.12,3-.14,2.45-.1,2.14-.07,2.09,0c3.19-.07,6.38-.11,9.58-.1Z"/><circle class="cls-3" cx="239.56" cy="489.1" r="25"/><circle class="cls-3" cx="301.56" cy="395.1" r="44"/><path class="cls-3" d="M308.55,274.09a44,44,0,0,1-73.76,32.4c-.62-.56-1.22-1.15-1.8-1.75a44,44,0,0,1-5.27-6.57q5.49-6.56,11.39-12.71a250.76,250.76,0,0,1,46.52-38.06,0,0,0,0,1,0,0q4.4-2.82,8.92-5.42A43.8,43.8,0,0,1,308.55,274.09Z"/><circle class="cls-3" cx="346.56" cy="555.1" r="61"/><circle class="cls-3" cx="403.56" cy="353.1" r="19"/><path class="cls-4" d="M410.79,156.05A79.19,79.19,0,0,1,433.35,153v44c-27.77.1-50.25,19.22-50.25-6.55,0-12.27,5.09-21.32,13.42-27.45A46.76,46.76,0,0,1,410.79,156.05Z"/><path class="cls-3" d="M648.68,568.29A267.34,267.34,0,0,1,433.35,677V142A266.67,266.67,0,0,1,622.5,220.37C717.36,315.23,726.09,463.59,648.68,568.29Z"/><path class="cls-8" d="M594.22,570.39A226.8,226.8,0,0,1,433.35,637V182a226.81,226.81,0,0,1,160.87,66.64C683.06,337.5,683.06,481.54,594.22,570.39Z"/><rect class="cls-3" x="611.72" y="582.89" width="80" height="90" transform="translate(-253.1 644.74) rotate(-45)"/><path class="cls-9" d="M762.14,611.69H828.9a16.62,16.62,0,0,1,16.62,16.62V881.69a50,50,0,0,1-50,50h0a50,50,0,0,1-50-50V628.31a16.62,16.62,0,0,1,16.62-16.62Z" transform="translate(-312.67 788.54) rotate(-45)"/></g></g></svg>